<?xml version="1.0" encoding="UTF-8"?>
<svg width="800" height="600" viewBox="0 0 800 600" fill="none" xmlns="http://www.w3.org/2000/svg">
  <!-- Background Elements -->
  <circle cx="400" cy="300" r="250" fill="#E8F4FF" />
  <circle cx="400" cy="300" r="200" fill="#C5E4FF" />
  
  <!-- Dashboard Window -->
  <rect x="200" y="150" width="400" height="300" rx="10" fill="white" stroke="#2563EB" stroke-width="2"/>
  <rect x="200" y="150" width="400" height="40" rx="10" fill="#2563EB"/>
  <circle cx="230" cy="170" r="6" fill="#FF6B6B"/>
  <circle cx="250" cy="170" r="6" fill="#FFD93D"/>
  <circle cx="270" cy="170" r="6" fill="#6BCB77"/>
  
  <!-- Content Elements -->
  <rect x="220" y="210" width="160" height="20" rx="4" fill="#E5E7EB"/>
  <rect x="220" y="240" width="360" height="10" rx="2" fill="#F3F4F6"/>
  <rect x="220" y="260" width="320" height="10" rx="2" fill="#F3F4F6"/>
  
  <!-- Chart Element -->
  <rect x="220" y="290" width="200" height="140" rx="8" fill="#F8FAFC"/>
  <path d="M240 390 L280 350 L320 370 L360 330 L400 350" stroke="#2563EB" stroke-width="2" fill="none"/>
  
  <!-- Task List -->
  <rect x="440" y="290" width="140" height="140" rx="8" fill="#F8FAFC"/>
  <rect x="450" y="310" width="120" height="10" rx="2" fill="#E5E7EB"/>
  <rect x="450" y="330" width="100" height="10" rx="2" fill="#E5E7EB"/>
  <rect x="450" y="350" width="110" height="10" rx="2" fill="#E5E7EB"/>
  
  <!-- Decorative Elements -->
  <circle cx="600" cy="150" r="30" fill="#DBEAFE" opacity="0.6"/>
  <circle cx="200" cy="450" r="40" fill="#DBEAFE" opacity="0.6"/>
  <circle cx="650" cy="400" r="20" fill="#DBEAFE" opacity="0.6"/>
</svg>
